<svg width="133" height="58" viewBox="0 0 133 58" fill="none" xmlns="http://www.w3.org/2000/svg">
<path d="M36.4865 4.35334C37.3746 4.35334 38.1016 5.07599 38.1016 5.96843V14.1353C38.1016 17.6223 40.9399 20.4607 44.427 20.4607H51.2878C52.1759 20.4607 52.9029 21.1833 52.9029 22.0758V36.7944C52.9029 37.6825 52.2194 38.4226 51.3531 38.4835C49.9514 38.5793 48.5757 38.6272 47.2653 38.6272C37.7359 38.6272 30.5355 36.0761 25.86 31.048C18.9208 23.5864 18.6465 12.05 19.1036 5.83347C19.1645 5.00199 19.8698 4.35334 20.71 4.35334H36.4865ZM36.4865 0H20.71C17.5886 0 14.9853 2.40304 14.759 5.51568C13.9101 17.1173 15.573 42.9805 47.2566 42.9805C48.6584 42.9805 50.1211 42.9283 51.6448 42.8238C54.8053 42.6061 57.2519 39.9593 57.2519 36.7901V22.0758C57.2519 18.7803 54.579 16.1074 51.2835 16.1074H44.4226C43.3343 16.1074 42.4506 15.2236 42.4506 14.1353V5.96843C42.4506 2.67295 39.782 0 36.4865 0Z" fill="white"/>
<path d="M0 26.242L0.02612 36.1502C0.0609467 39.4457 2.76002 42.0882 6.05549 42.0533L12.9164 41.9793C14.0047 41.9663 14.8971 42.8413 14.9102 43.9296L14.9973 52.0965C15.0321 55.392 17.7311 58.0345 21.0266 57.9996L36.7988 57.8298C39.9201 57.795 42.4973 55.3659 42.6888 52.2489C43.4028 40.9258 41.5265 16.1292 12.0109 15.2368" fill="#6CCAA9"/>
<path opacity="0.39" d="M0 26.242L4.54053 26.5685C8.70232 26.8689 12.2111 23.5125 12.0979 19.342L12.0109 15.2368L0 26.242Z" fill="#4D4D4D"/>
<path d="M0 26.242L4.18356 26.1288C8.65444 26.0069 12.1763 22.2848 12.0544 17.814L12.0109 15.2368L0 26.242Z" fill="white"/>
<path d="M76.6981 43.9954C75.8144 43.4687 75.1353 42.7112 74.6564 41.7273C74.1775 40.7435 73.9381 39.5768 73.9381 38.2359C73.9381 36.9038 74.1775 35.7458 74.6564 34.762C75.1353 33.7781 75.8144 33.0206 76.6981 32.4939C77.5819 31.9671 78.6267 31.7059 79.8369 31.7059C80.6466 31.7059 81.4128 31.8365 82.1311 32.0977C82.8494 32.3589 83.4763 32.729 84.0074 33.2122C84.1989 33.395 84.2991 33.604 84.2991 33.8478C84.2991 34.0176 84.2512 34.1656 84.1554 34.2918C84.0596 34.4181 83.9421 34.4834 83.8115 34.4834C83.6678 34.4834 83.4893 34.4181 83.2847 34.2831C82.6666 33.7999 82.1093 33.4603 81.6043 33.2688C81.1037 33.0729 80.5247 32.9771 79.8717 32.9771C78.4699 32.9771 77.3903 33.4342 76.6328 34.3484C75.8753 35.2626 75.4966 36.5599 75.4966 38.2403C75.4966 39.9337 75.8753 41.2354 76.6328 42.1496C77.3903 43.0638 78.4699 43.5209 79.8717 43.5209C80.5117 43.5209 81.0863 43.4251 81.5956 43.2292C82.105 43.0377 82.6666 42.6981 83.2847 42.2149C83.4893 42.0799 83.6678 42.0146 83.8115 42.0146C83.9421 42.0146 84.0596 42.0756 84.1554 42.1975C84.2512 42.3194 84.2991 42.4717 84.2991 42.6502C84.2991 42.894 84.2033 43.103 84.0074 43.2858C83.4763 43.769 82.8494 44.1434 82.1311 44.4003C81.4128 44.6615 80.6466 44.7877 79.8369 44.7877C78.6267 44.7834 77.5819 44.5222 76.6981 43.9954Z" fill="#6CCAA9"/>
<path d="M96.5868 44.1305C96.5868 44.3133 96.5172 44.4613 96.3779 44.5745C96.2386 44.6877 96.0775 44.7486 95.8947 44.7486C95.6161 44.7486 95.3984 44.6267 95.2417 44.3873L92.8081 40.539C92.4947 40.0427 92.1682 39.7031 91.8286 39.5116C91.4891 39.3244 91.032 39.2286 90.4486 39.2286H88.1631V43.965C88.1631 44.1958 88.0978 44.3786 87.9629 44.5179C87.8279 44.6572 87.6538 44.7269 87.4361 44.7269C87.2054 44.7269 87.0226 44.6572 86.892 44.5179C86.757 44.3786 86.6917 44.1958 86.6917 43.965V32.5723C86.6917 32.3547 86.7614 32.1805 86.9007 32.0456C87.04 31.9106 87.2228 31.8453 87.4535 31.8453H91.9549C93.348 31.8453 94.4058 32.1544 95.1372 32.7726C95.8685 33.3908 96.2342 34.2963 96.2342 35.4934C96.2342 36.5078 95.9382 37.3262 95.3549 37.9444C94.7715 38.5625 93.9313 38.9369 92.843 39.0675C93.1477 39.1633 93.4176 39.32 93.6614 39.5377C93.9008 39.7554 94.1446 40.0601 94.3884 40.4432L96.4562 43.7082C96.5477 43.8475 96.5868 43.9868 96.5868 44.1305ZM91.833 37.9966C92.8256 37.9966 93.5656 37.792 94.0576 37.3784C94.5495 36.9692 94.7933 36.3423 94.7933 35.5108C94.7933 34.6881 94.5495 34.0786 94.0663 33.6781C93.583 33.2776 92.8386 33.0773 91.833 33.0773H88.1675V37.9966H91.833Z" fill="#6CCAA9"/>
<path d="M99.3512 44.4395C99.2119 44.3089 99.1423 44.1305 99.1423 43.9128V32.5723C99.1423 32.3547 99.2119 32.1805 99.3512 32.0456C99.4905 31.9106 99.6734 31.8453 99.9041 31.8453H106.691C106.909 31.8453 107.078 31.9019 107.2 32.0108C107.322 32.1196 107.383 32.272 107.383 32.4635C107.383 32.6594 107.322 32.8074 107.2 32.9163C107.078 33.0251 106.909 33.0817 106.691 33.0817H100.614V37.5264H106.33C106.547 37.5264 106.717 37.583 106.839 37.6919C106.961 37.8007 107.022 37.9531 107.022 38.1446C107.022 38.3362 106.961 38.4885 106.839 38.5974C106.717 38.7062 106.547 38.7628 106.33 38.7628H100.614V43.4034H106.691C106.909 43.4034 107.078 43.4557 107.2 43.5602C107.322 43.6646 107.383 43.817 107.383 44.0216C107.383 44.2175 107.322 44.3655 107.2 44.4744C107.078 44.5832 106.909 44.6398 106.691 44.6398H99.9041C99.6734 44.6398 99.4905 44.5745 99.3512 44.4395Z" fill="#6CCAA9"/>
<path d="M109.916 44.4395C109.776 44.3089 109.707 44.1305 109.707 43.9128V32.5723C109.707 32.3547 109.776 32.1805 109.916 32.0456C110.055 31.9106 110.238 31.8453 110.469 31.8453H114.008C116.054 31.8453 117.634 32.3982 118.753 33.504C119.872 34.6097 120.433 36.1856 120.433 38.2317C120.433 40.2778 119.872 41.8537 118.744 42.9681C117.621 44.0826 116.041 44.6398 114.008 44.6398H110.469C110.238 44.6398 110.055 44.5745 109.916 44.4395ZM113.916 43.3686C117.234 43.3686 118.888 41.6578 118.888 38.2317C118.888 34.8187 117.229 33.1122 113.916 33.1122H111.196V43.3643H113.916V43.3686Z" fill="#6CCAA9"/>
<path d="M124.603 44.3743C123.776 44.1 123.11 43.7387 122.614 43.2772C122.431 43.1074 122.34 42.8941 122.34 42.6416C122.34 42.4719 122.388 42.3238 122.483 42.1976C122.579 42.0713 122.697 42.006 122.827 42.006C122.984 42.006 123.154 42.0713 123.337 42.2063C124.46 43.077 125.744 43.5123 127.185 43.5123C128.225 43.5123 129.022 43.312 129.579 42.9115C130.136 42.511 130.415 41.9451 130.415 41.205C130.415 40.7828 130.28 40.4388 130.015 40.1776C129.749 39.9164 129.396 39.7075 128.961 39.5508C128.526 39.394 127.938 39.2286 127.202 39.0588C126.21 38.8281 125.396 38.5887 124.76 38.3318C124.125 38.0793 123.611 37.7137 123.219 37.2435C122.827 36.7733 122.631 36.1552 122.631 35.3933C122.631 34.6663 122.827 34.022 123.219 33.4604C123.611 32.8989 124.164 32.4635 124.869 32.1544C125.579 31.8454 126.384 31.693 127.289 31.693C128.138 31.693 128.926 31.8236 129.658 32.0848C130.389 32.346 131.003 32.716 131.499 33.1992C131.691 33.3908 131.791 33.6041 131.791 33.8348C131.791 34.0046 131.743 34.1526 131.647 34.2789C131.551 34.4051 131.434 34.4704 131.303 34.4704C131.168 34.4704 130.994 34.4051 130.776 34.2702C130.184 33.7869 129.631 33.4474 129.127 33.2558C128.617 33.0599 128.008 32.9642 127.294 32.9642C126.288 32.9642 125.509 33.1731 124.952 33.591C124.394 34.009 124.116 34.5923 124.116 35.3411C124.116 35.981 124.36 36.4642 124.852 36.782C125.343 37.1042 126.097 37.3828 127.111 37.6266C128.212 37.8921 129.079 38.1403 129.706 38.3623C130.332 38.5843 130.859 38.9239 131.277 39.3679C131.695 39.8163 131.904 40.4127 131.904 41.1659C131.904 41.8798 131.708 42.511 131.316 43.0552C130.924 43.5994 130.367 44.0216 129.658 44.3264C128.944 44.6311 128.125 44.7791 127.207 44.7791C126.297 44.7835 125.431 44.6485 124.603 44.3743Z" fill="#6CCAA9"/>
<path d="M95.1543 5.06293C95.4547 5.37637 95.6071 5.77688 95.6071 6.27316V26.0634C95.6071 26.5597 95.4721 26.9428 95.2022 27.2258C94.9323 27.5044 94.5623 27.6437 94.0921 27.6437C93.6394 27.6437 93.2867 27.5044 93.0299 27.2258C92.773 26.9472 92.6424 26.5597 92.6424 26.0634V11.0749L86.3257 23.0945C85.9165 23.8476 85.3898 24.222 84.7455 24.222C84.1012 24.222 83.5744 23.8476 83.1652 23.0945L76.8137 11.2011V26.0634C76.8137 26.5597 76.6831 26.9428 76.4263 27.2258C76.1694 27.5044 75.8037 27.6437 75.3292 27.6437C74.8765 27.6437 74.5195 27.5 74.2496 27.2084C73.9797 26.9167 73.8447 26.538 73.8447 26.0634V6.26881C73.8447 5.77253 73.9927 5.37202 74.2975 5.05858C74.5979 4.74949 74.9853 4.59277 75.4598 4.59277C76.1259 4.59277 76.6613 4.98022 77.0705 5.75511L84.776 20.4868L92.4161 5.75511C92.8253 4.98022 93.352 4.59277 93.9963 4.59277C94.4665 4.59277 94.8539 4.74949 95.1543 5.06293Z" fill="white"/>
<path d="M113.598 23.869C113.789 24.1041 113.889 24.4044 113.889 24.7701C113.889 25.3927 113.502 25.9194 112.727 26.3504C111.974 26.7814 111.151 27.1122 110.263 27.3517C109.371 27.5867 108.517 27.7043 107.699 27.7043C105.204 27.7043 103.241 26.9773 101.8 25.5276C100.359 24.0779 99.6408 22.0928 99.6408 19.5809C99.6408 17.9702 99.9586 16.5423 100.59 15.2929C101.225 14.0479 102.118 13.0814 103.267 12.3936C104.416 11.7058 105.722 11.3618 107.185 11.3618C109.292 11.3618 110.955 12.0366 112.183 13.3949C113.406 14.7487 114.02 16.5771 114.02 18.8757C114.02 19.7333 113.632 20.1643 112.858 20.1643H102.897C103.11 23.4946 104.712 25.1619 107.699 25.1619C108.495 25.1619 109.183 25.0531 109.762 24.8398C110.341 24.6265 110.955 24.3479 111.599 24.0039C111.665 23.9604 111.843 23.869 112.131 23.7297C112.422 23.5904 112.662 23.5207 112.858 23.5207C113.158 23.5164 113.402 23.6339 113.598 23.869ZM104.247 14.9403C103.494 15.737 103.045 16.8514 102.893 18.2924H111.208C111.142 16.8296 110.772 15.7065 110.098 14.9229C109.418 14.1393 108.469 13.7475 107.246 13.7475C106.001 13.7475 105 14.148 104.247 14.9403Z" fill="white"/>
<path d="M131.645 5.01069C131.945 5.28931 132.097 5.66805 132.097 6.13821V26.0591C132.097 26.5554 131.954 26.9385 131.662 27.2214C131.37 27.5 130.978 27.6393 130.487 27.6393C129.99 27.6393 129.598 27.5 129.311 27.2214C129.019 26.9428 128.876 26.5554 128.876 26.0591V24.7705C128.401 25.7152 127.713 26.4422 126.812 26.9472C125.911 27.4522 124.866 27.7046 123.687 27.7046C122.333 27.7046 121.123 27.3607 120.06 26.6729C118.998 25.9851 118.171 25.0186 117.579 23.7736C116.987 22.5285 116.691 21.0963 116.691 19.4855C116.691 17.853 116.987 16.4208 117.579 15.1975C118.171 13.9742 118.994 13.0252 120.043 12.3591C121.096 11.6931 122.311 11.3622 123.687 11.3622C124.866 11.3622 125.907 11.6147 126.799 12.1197C127.692 12.6247 128.375 13.3386 128.845 14.2615V6.07726C128.845 5.62451 128.989 5.26754 129.281 4.99763C129.572 4.72773 129.964 4.59277 130.456 4.59277C130.948 4.59277 131.344 4.73208 131.645 5.01069ZM127.713 23.6778C128.488 22.7114 128.876 21.3357 128.876 19.5508C128.876 17.766 128.493 16.3903 127.731 15.4239C126.969 14.4574 125.876 13.9742 124.457 13.9742C123.038 13.9742 121.937 14.4531 121.153 15.4065C120.369 16.3642 119.978 17.7224 119.978 19.4855C119.978 21.2486 120.374 22.6287 121.17 23.6256C121.967 24.6225 123.06 25.1231 124.457 25.1231C125.855 25.1231 126.939 24.6442 127.713 23.6778Z" fill="white"/>
</svg>
